<?xml version="1.0" encoding="utf-8"?>
<!-- Generator: Adobe Illustrator 21.0.1, SVG Export Plug-In . SVG Version: 6.00 Build 0)  -->
<svg version="1.1" xmlns="http://www.w3.org/2000/svg" xmlns:xlink="http://www.w3.org/1999/xlink" x="0px" y="0px"
	 viewBox="0 0 242.1 70.9" enable-background="new 0 0 242.1 70.9" xml:space="preserve">
<path d="M239.7,30c-2.9-2.4-7.2-2-9.7,0.9c-10.3,12.3-25.4,19.1-41,22.6c4.6-5.8,6.8-12.9,6.4-21.2c-0.6-14.8-8.3-26.2-20.4-30.6
	c-12.9-4.6-27.8-0.2-38,11.2c-8,8.9-13.1,19.5-16.2,28.5c-3.1-9-8.2-19.5-16.2-28.5C94.4,1.6,79.5-2.8,66.7,1.8
	C54.5,6.1,46.9,17.5,46.2,32.3c-0.3,8.2,1.8,15.3,6.3,21.1c-15.3-3.6-30.3-10.3-40.4-22.5C9.7,28,5.4,27.6,2.5,30
	c-2.9,2.4-3.3,6.7-0.9,9.6c21.9,26.2,60,31.3,86.4,31.3c4.7,0,8.9-0.2,12.7-0.4c0.8,0,1.6,0,2.3,0c9.3,0,16.2-0.9,16.9-1
	c0.3,0,0.6-0.1,0.9-0.2c0.3,0.1,0.6,0.2,0.9,0.2c0.7,0.1,7.6,1,16.9,1c0.8,0,1.8,0,2.6-0.1c3.8,0.2,8.1,0.4,12.8,0.4
	c26.4,0,64.5-5.1,86.4-31.3C243,36.7,242.6,32.5,239.7,30z M147.3,22.1c6.5-7.2,15.6-10.1,23.1-7.5c6.8,2.4,11,9.1,11.3,18.3
	c0.3,6.2-1.6,10.9-5.6,14.6c-7.5,6.8-21.4,9-33.5,9.4c-5-0.3-9-0.7-11.7-1C133,47.2,137.5,33,147.3,22.1z M71.3,14.6
	c1.9-0.7,3.8-1,5.8-1c6.1,0,12.4,3,17.3,8.4c9.8,10.9,14.3,25.2,16.3,33.8c-2.7,0.3-6.5,0.7-11.3,1c-12.2-0.3-26.3-2.5-33.9-9.4
	c-4-3.7-5.9-8.4-5.6-14.6C60.3,23.7,64.5,17,71.3,14.6z"/>
</svg>
